<svg xmlns="http://www.w3.org/2000/svg" width="47.66" height="73.873" viewBox="0 0 47.66 73.873">
  <g id="Group_43" data-name="Group 43" transform="translate(-4814.17 -2515.064)">
    <g id="location-pin_1_" data-name="location-pin (1)" transform="translate(4814.17 2515.064)">
      <path id="Path_58" data-name="Path 58" d="M85.107,415.774c-7.349,0-13.107-3.141-13.107-7.149,0-3.273,3.827-6.041,9.524-6.888l.35,2.358c-4.27.634-7.491,2.582-7.491,4.53,0,2.254,4.4,4.766,10.724,4.766s10.724-2.512,10.724-4.766c0-1.948-3.221-3.9-7.492-4.533l.351-2.358c5.7.851,9.524,3.619,9.524,6.891,0,4.008-5.757,7.149-13.107,7.149Zm0,0" transform="translate(-61.276 -341.901)"/>
      <path id="Path_59" data-name="Path 59" d="M23.83,67.915a3.948,3.948,0,0,1-3.922-3.365A39.147,39.147,0,0,0,8.824,42.68L6.98,40.836A23.676,23.676,0,0,1,0,23.984v-.155a23.83,23.83,0,1,1,47.66,0v.155a23.676,23.676,0,0,1-6.98,16.852L38.836,42.68A39.15,39.15,0,0,0,27.752,64.55a3.948,3.948,0,0,1-3.922,3.365Zm0,0" transform="translate(0 0.001)" fill="#ffa253"/>
      <path id="Path_60" data-name="Path 60" d="M64.681,81.362A16.681,16.681,0,1,1,81.362,64.681,16.7,16.7,0,0,1,64.681,81.362Zm0-30.979a14.3,14.3,0,1,0,14.3,14.3A14.314,14.314,0,0,0,64.681,50.383Zm0,0" transform="translate(-40.851 -40.851)"/>
      <path id="Path_61" data-name="Path 61" d="M120,288h2.383v2.383H120Zm0,0" transform="translate(-102.127 -245.106)"/>
      <path id="Path_62" data-name="Path 62" d="M152,288h2.383v2.383H152Zm0,0" transform="translate(-129.361 -245.106)"/>
      <path id="Path_63" data-name="Path 63" d="M184,288h2.383v2.383H184Zm0,0" transform="translate(-156.595 -245.106)"/>
    </g>
    <text id="P" transform="translate(4830 2548)" font-size="25" font-family="FredokaOne-Regular, Fredoka One"><tspan x="0" y="0">P</tspan></text>
  </g>
</svg>
